# xmcd
#
# Track frame offsets:
#	150
#	16926
#	33460
#	53126
#	73088
#	86920
#	103524
#	120280
#	136816
#	156471
#	176459
#	190277
#
# Disc length: 2760 seconds
#
# Revision: 1
# Processed by: cddbd v1.5.1PL2 Copyright (c) Steve Scherf et al.
# Submitted via: audiograbber 1.83.01
#
DISCID=9d0ac60c
DTITLE=Various Artist - CB2267
DYEAR=1900
DGENRE=Karaoke
TTITLE0=Aaron Tippin - Vocal
TTITLE1=Alabama - Vocal
TTITLE2=George Jones - Vocal
TTITLE3=Randy Travis - Vocal
TTITLE4=Chris Ledoux - Vocal
TTITLE5=Hank Williams - Vocal
TTITLE6=Aaron Tippin - People Like Us
TTITLE7=Alabama - When It All Goes South
TTITLE8=George Jones - Our Bed Of Roses
TTITLE9=Randy Travis - Down With The Old (Up With The New)
TTITLE10=Chris Ledoux - He Rides The Wild Horses
TTITLE11=Hank Williams - I Don't Know
EXTD=
EXTT0=
EXTT1=
EXTT2=
EXTT3=
EXTT4=
EXTT5=
EXTT6=
EXTT7=
EXTT8=
EXTT9=
EXTT10=
EXTT11=
PLAYORDER=
